<?xml version="1.0" encoding="UTF-8"?>
<!-- Generator: visioncortex VTracer -->
<svg id="svg" version="1.1" xmlns="http://www.w3.org/2000/svg" style="display: block;" viewBox="0 0 744 737"><path d="M0 0 C-0.1875 4.1875 -0.1875 4.1875 -1 8 C-0.67 7.67 -0.34 7.34 0 7 C2.475 7.99 2.475 7.99 5 9 C5.66 7.68 6.32 6.36 7 5 C13.49406817 6.0823447 18.64799417 8.40456203 24.5 11.25 C25.60206787 11.78359131 26.70413574 12.31718262 27.83959961 12.86694336 C68.82073642 33.03002687 105.26172784 62.38088598 135 97 C135.92683594 98.06863281 136.85367188 99.13726562 137.80859375 100.23828125 C143.54979371 106.95198759 148.91019517 113.78478216 154 121 C154.86882813 122.18335938 155.73765625 123.36671875 156.6328125 124.5859375 C225.59369077 219.66000167 244.78442384 343.99116621 209.09204102 455.67749023 C198.37655565 488.17783859 183.52754312 518.83996009 164 547 C162.59041016 549.04380859 162.59041016 549.04380859 161.15234375 551.12890625 C155.40633696 559.37380853 149.52506962 567.35851482 143 575 C142.01773438 576.16660156 141.03546875 577.33320312 140.0234375 578.53515625 C134.8837767 584.59944586 129.68498723 590.43596994 124 596 C123.01 597.32 122.02 598.64 121 600 C120.34 600 119.68 600 119 600 C119 600.66 119 601.32 119 602 C116.35685796 604.35994825 113.68506429 606.68786131 111 609 C109.1128125 610.918125 109.1128125 610.918125 107.1875 612.875 C102.37289506 617.61774516 97.3093825 621.82834232 92 626 C90.92234375 626.84820313 89.8446875 627.69640625 88.734375 628.5703125 C80.38989028 635 80.38989028 635 77 635 C74.8125 632 74.8125 632 73 629 C72.34 630.65 71.68 632.3 71 634 C70.34 634 69.68 634 69 634 C69.17660156 635.33417969 69.35320313 636.66835938 69.53515625 638.04296875 C68.86681062 644.23370308 66.79680966 645.37778241 61.63500977 648.51538086 C60.57983154 649.10843018 59.52465332 649.70147949 58.4375 650.3125 C57.35718506 650.95131104 56.27687012 651.59012207 55.16381836 652.24829102 C44.32794763 658.5793881 33.23616934 664.41496289 22 670 C19.834375 671.09054687 19.834375 671.09054687 17.625 672.203125 C-86.09795129 722.86779736 -216.29140573 720.04291156 -318.25 666.75 C-321.17046432 665.17368244 -324.08768455 663.5913226 -327 662 C-329.7534375 660.5459375 -329.7534375 660.5459375 -332.5625 659.0625 C-345.99146037 651.49906255 -358.74217972 643.34318301 -371 634 C-372.09828125 633.17757812 -373.1965625 632.35515625 -374.328125 631.5078125 C-377.58560228 629.04503379 -380.80132508 626.53863089 -384 624 C-385.50626953 622.80503906 -385.50626953 622.80503906 -387.04296875 621.5859375 C-395.41920183 614.66865854 -403.11641066 607.09158012 -410.8125 599.4375 C-411.87436523 598.3848999 -412.93623047 597.3322998 -414.03027344 596.24780273 C-420.45496426 589.79742523 -426.32816314 583.11425927 -432 576 C-433.78589562 573.9325009 -435.57654969 571.8690875 -437.375 569.8125 C-443.50386143 562.58950431 -448.7488238 554.87293133 -454 547 C-454.81082031 545.83082031 -455.62164062 544.66164063 -456.45703125 543.45703125 C-522.0001345 448.05422668 -532.51556641 324.36284985 -495.05859375 216.42578125 C-482.19928983 180.39954298 -463.46658756 146.18471848 -440 116 C-439.08347656 114.79601562 -438.16695313 113.59203125 -437.22265625 112.3515625 C-431.71078922 105.18692616 -425.88961426 98.46134201 -419.6953125 91.87890625 C-417.61591538 89.65786904 -415.60504264 87.37254974 -413.625 85.0625 C-405.67720683 76.15549042 -397.17324564 67.64437137 -388 60 C-386.86433594 59.04867187 -385.72867188 58.09734375 -384.55859375 57.1171875 C-330.93005446 12.76748639 -330.93005446 12.76748639 -318 16 C-316.35 16.66 -314.7 17.32 -313 18 C-312.67 17.01 -312.34 16.02 -312 15 C-311.01 14.34 -310.02 13.68 -309 13 C-309.33 11.68 -309.66 10.36 -310 9 C-236.07398414 -42.59645681 -77.88622226 -46.73173336 0 0 Z " transform="translate(517,29)" style="fill: #B3D4DE;"/><path d="M0 0 C1.16956238 0.00082581 2.33912476 0.00165161 3.54412842 0.00250244 C21.57495977 0.03165521 39.38485636 0.81029718 57.29833984 2.9453125 C61.83586764 3.46570611 66.38603975 3.81152552 70.9375 4.1875 C82.93862501 5.41293133 94.70440662 7.85296233 106.5 10.3125 C108.38203125 10.6940625 110.2640625 11.075625 112.203125 11.46875 C140.46811629 17.49644267 175.59802975 26.15209872 189.5 54.3125 C194.50867551 66.83418877 193.72185929 79.08235588 188.5 91.3125 C186.8603125 93.478125 186.8603125 93.478125 185.1875 95.6875 C181.77258265 99.38503064 181.77258265 99.38503064 183.5 105.3125 C184.80406884 107.33170337 186.13823419 109.33174973 187.5 111.3125 C189.28429304 116.66537913 189.77080421 119.82018755 189.75 125.3125 C189.75515625 126.67375 189.7603125 128.035 189.765625 129.4375 C189.35492086 135.42894865 187.47346384 139.35383516 184.25 144.375 C180.71344988 149.22203711 180.71344988 149.22203711 183.5 154.3125 C185.15938446 156.98370425 186.82562206 159.65066841 188.5 162.3125 C191.92409678 172.58479035 190.34847277 184.40687102 184.5 193.3125 C183.18 194.9625 181.86 196.6125 180.5 198.3125 C182.32527898 202.21952918 182.32527898 202.21952918 184.5 205.125 C190.55910579 214.78169986 189.61447363 226.02631592 185.5 236.3125 C183.0499775 240.25057298 180.42845874 243.68678918 177.5 247.3125 C176.84 247.3125 176.18 247.3125 175.5 247.3125 C176.7375 250.096875 176.7375 250.096875 178 252.9375 C182.63858023 265.14359254 181.36204385 274.84328376 175.5 286.3125 C172.3125 291.0625 172.3125 291.0625 169.5 294.3125 C168.84 294.3125 168.18 294.3125 167.5 294.3125 C167.995 295.50875 168.49 296.705 169 297.9375 C172.47932439 310.40507907 171.07577289 321.59140185 163.3984375 332.22265625 C156.85432074 339.97114629 148.48755341 346.81561165 138.5 349.3125 C138.83 350.3025 139.16 351.2925 139.5 352.3125 C140.42332003 367.47916665 138.65600794 376.60727051 128.5 388.3125 C127.200625 389.034375 125.90125 389.75625 124.5625 390.5 C120.11944165 394.58035971 121.27725371 397.84145211 121.5546875 403.61328125 C121.37548136 415.73529675 112.99094013 426.03065913 103.625 432.875 C99.5 435.3125 99.5 435.3125 97.5 436.3125 C97.83 438.2925 98.16 440.2725 98.5 442.3125 C99.51948455 457.40087134 93.41991697 468.38530275 82.5 478.3125 C81.84 478.3125 81.18 478.3125 80.5 478.3125 C81.16 480.2925 81.82 482.2725 82.5 484.3125 C83.49554658 498.08422774 78.99449012 508.1722548 69.0625 517.5625 C60.31818182 524.3125 60.31818182 524.3125 56.5 524.3125 C56.54125 525.59125 56.5825 526.87 56.625 528.1875 C56.38785972 537.91025166 52.4422392 544.69567827 45.5 551.3125 C43.43396935 552.4284777 41.34924942 553.51033996 39.25 554.5625 C32.26963939 558.35974697 31.97830463 562.6097548 30.5 570.3125 C23.50688674 581.87803348 15.62114857 589.45366999 1.86328125 590.62109375 C-11.07298724 591.032759 -18.99074006 587.32339404 -27.5 577.3125 C-30.58798027 572.07635954 -32.40598457 568.3869621 -32.9375 562.3125 C-33.123125 560.9925 -33.30875 559.6725 -33.5 558.3125 C-35.48 557.6525 -37.46 556.9925 -39.5 556.3125 C-48.23959885 551.73461489 -54.50244002 544.80477326 -57.5 535.3125 C-57.5309375 532.8065625 -57.5309375 532.8065625 -57.5625 530.25 C-58.90476124 523.18075746 -62.31904085 522.61369409 -68.5 519.3125 C-78.09412785 510.83976371 -83.65234665 502.22012052 -83.625 489.3125 C-83.62757813 488.095625 -83.63015625 486.87875 -83.6328125 485.625 C-83.5 482.3125 -83.5 482.3125 -82.5 478.3125 C-83.82 477.6525 -85.14 476.9925 -86.5 476.3125 C-96.15078527 466.51092121 -99.93510006 458.02730087 -99 444.3125 C-98.79236212 437.58326766 -98.79236212 437.58326766 -103.5 432.8125 C-105.15 431.9875 -106.8 431.1625 -108.5 430.3125 C-118.07021785 422.0278338 -122.71702014 414.15734764 -122.75 401.625 C-122.92708851 393.66310074 -124.63171987 391.00495469 -130.91796875 386.35546875 C-141.31627819 378.12806204 -141.85477749 366.37493464 -141.5 354.3125 C-141.17 352.6625 -140.84 351.0125 -140.5 349.3125 C-142.15 348.9825 -143.8 348.6525 -145.5 348.3125 C-153.98747016 343.2561348 -161.05844068 337.64850577 -166.5 329.3125 C-167.469375 327.848125 -168.43875 326.38375 -169.4375 324.875 C-173.04047209 315.15789345 -172.76032618 305.09347855 -169.5 295.3125 C-172.64907842 291.30795719 -172.64907842 291.30795719 -176.5 287.3125 C-183.3835398 274.81344088 -183.26358454 263.37662496 -177.5 250.3125 C-179.38169276 246.20677863 -179.38169276 246.20677863 -182.375 242.6875 C-189.27395786 233.02895899 -190.9035366 223.95359769 -189.5 212.3125 C-187.125 206.625 -187.125 206.625 -184.5 202.3125 C-183.84 200.6625 -183.18 199.0125 -182.5 197.3125 C-184.48 194.8375 -184.48 194.8375 -186.5 192.3125 C-192.11377614 180.76416051 -192.95745973 171.45523511 -188.5 159.3125 C-187.13875 157.146875 -187.13875 157.146875 -185.75 154.9375 C-182.96514101 151.41849475 -182.96514101 151.41849475 -184.5 147.3125 C-185.985 144.651875 -185.985 144.651875 -187.5 141.9375 C-193.09959347 131.43826224 -192.5446613 121.29086638 -188.5 110.3125 C-187.21927629 108.2784094 -185.89712274 106.26847184 -184.5 104.3125 C-183.12084056 98.79586224 -185.54281709 97.40294906 -188.70703125 93.0703125 C-195.15756356 83.14857871 -194.74018513 70.16892977 -192.375 59 C-185.21379359 41.09698398 -171.80770559 31.4661077 -154.5 24.3125 C-153.15679687 23.75691406 -151.81359375 23.20132813 -150.4296875 22.62890625 C-118.99649914 10.35629618 -84.94812362 5.262178 -51.5 2.3125 C-48.77919189 2.05762817 -48.77919189 2.05762817 -46.00341797 1.79760742 C-30.64320683 0.44321818 -15.41605733 -0.04651432 0 0 Z " transform="translate(372.5,83.6875)" style="fill: #2E4156;"/><path d="M0 0 C1.90234375 3.21875 1.90234375 3.21875 3.9375 7.5 C4.60652344 8.8921875 5.27554688 10.284375 5.96484375 11.71875 C6.63644531 13.1315625 7.30804688 14.544375 8 16 C8.74378906 17.4128125 9.48757812 18.825625 10.25390625 20.28125 C12 24 12 24 12 28 C7.4375 31 7.4375 31 2 34 C-8.97502058 40.09723365 -19.04075248 47.38485018 -29 55 C-30.61261719 56.20849609 -30.61261719 56.20849609 -32.2578125 57.44140625 C-38.63239137 62.25624774 -44.67184753 67.26859389 -50.5234375 72.70703125 C-52.61705464 74.64544334 -54.77119918 76.51817073 -56.9375 78.375 C-65.1722472 85.72292827 -72.87068386 93.57444456 -80 102 C-80.78375 102.89460938 -81.5675 103.78921875 -82.375 104.7109375 C-105.06543166 130.89727869 -125.1525682 161.69788576 -138 194 C-138.49242187 195.04800781 -138.98484375 196.09601563 -139.4921875 197.17578125 C-148.91216349 217.3831491 -154.47070044 239.24481016 -159 261 C-159.3403125 262.44246094 -159.680625 263.88492187 -160.03125 265.37109375 C-161.17403291 270.83156854 -161.88583067 276.27514836 -162.5625 281.8125 C-162.81128906 283.81957031 -163.06007812 285.82664062 -163.31640625 287.89453125 C-166.75523872 318.60821786 -166.12191936 349.52923608 -161 380 C-160.60748047 382.42085938 -160.60748047 382.42085938 -160.20703125 384.890625 C-152.21674935 430.62505622 -134.30871352 475.73278034 -108 514 C-107.278125 515.0725 -106.55625 516.145 -105.8125 517.25 C-100.891708 524.49449933 -95.66789133 531.32709918 -90 538 C-89.04867187 539.12535156 -88.09734375 540.25070312 -87.1171875 541.41015625 C-74.32605487 556.45592066 -74.32605487 556.45592066 -60 570 C-58.1217159 571.74647469 -56.24703289 573.49682634 -54.375 575.25 C-39.58083441 588.83609931 -23.04222289 600.42144071 -6 611 C-4.7521875 611.77988281 -3.504375 612.55976562 -2.21875 613.36328125 C86.82770736 667.46418121 204.52998116 677.15485085 301.125 637.5625 C303.06375 636.716875 305.0025 635.87125 307 635 C308.12535156 634.53464844 309.25070312 634.06929687 310.41015625 633.58984375 C331.56961316 624.68405372 352.60258336 613.79806248 371 600 C376.57596282 602.78798141 377.73003091 606.4713926 380.625 611.9375 C384.10086871 618.59505028 384.10086871 618.59505028 388 625 C388 625.99 388 626.98 388 628 C384.5260065 630.46571043 381.06873822 632.72360085 377.4375 634.9375 C376.35718506 635.60338135 375.27687012 636.2692627 374.16381836 636.95532227 C363.37684846 643.52126986 352.30682888 649.37984094 341 655 C338.834375 656.09054687 338.834375 656.09054687 336.625 657.203125 C232.90204871 707.86779736 102.70859427 705.04291156 0.75 651.75 C-2.17046432 650.17368244 -5.08768455 648.5913226 -8 647 C-10.7534375 645.5459375 -10.7534375 645.5459375 -13.5625 644.0625 C-26.99146037 636.49906255 -39.74217972 628.34318301 -52 619 C-53.09828125 618.17757812 -54.1965625 617.35515625 -55.328125 616.5078125 C-58.58560228 614.04503379 -61.80132508 611.53863089 -65 609 C-66.50626953 607.80503906 -66.50626953 607.80503906 -68.04296875 606.5859375 C-76.41920183 599.66865854 -84.11641066 592.09158012 -91.8125 584.4375 C-92.87436523 583.3848999 -93.93623047 582.3322998 -95.03027344 581.24780273 C-101.45496426 574.79742523 -107.32816314 568.11425927 -113 561 C-114.78589562 558.9325009 -116.57654969 556.8690875 -118.375 554.8125 C-124.50386143 547.58950431 -129.7488238 539.87293133 -135 532 C-135.81082031 530.83082031 -136.62164062 529.66164063 -137.45703125 528.45703125 C-203.0001345 433.05422668 -213.51556641 309.36284985 -176.05859375 201.42578125 C-163.19928983 165.39954298 -144.46658756 131.18471848 -121 101 C-120.08347656 99.79601562 -119.16695313 98.59203125 -118.22265625 97.3515625 C-112.71078922 90.18692616 -106.88961426 83.46134201 -100.6953125 76.87890625 C-98.61591538 74.65786904 -96.60504264 72.37254974 -94.625 70.0625 C-86.67720683 61.15549042 -78.17324564 52.64437137 -69 45 C-67.86433594 44.04867187 -66.72867188 43.09734375 -65.55859375 42.1171875 C-14.62965426 0 -14.62965426 0 0 0 Z " transform="translate(198,44)" style="fill: #304258;"/><path d="M0 0 C-0.1875 4.1875 -0.1875 4.1875 -1 8 C-0.67 7.67 -0.34 7.34 0 7 C1.65 7.66 3.3 8.32 5 9 C5.66 7.68 6.32 6.36 7 5 C13.49406817 6.0823447 18.64799417 8.40456203 24.5 11.25 C25.60206787 11.78359131 26.70413574 12.31718262 27.83959961 12.86694336 C68.82073642 33.03002687 105.26172784 62.38088598 135 97 C135.92683594 98.06863281 136.85367187 99.13726562 137.80859375 100.23828125 C143.54979371 106.95198759 148.91019517 113.78478216 154 121 C154.86882812 122.18335938 155.73765625 123.36671875 156.6328125 124.5859375 C225.59369077 219.66000167 244.78442384 343.99116621 209.09204102 455.67749023 C198.37655565 488.17783859 183.52754312 518.83996009 164 547 C163.06027344 548.36253906 162.12054687 549.72507812 161.15234375 551.12890625 C155.40633696 559.37380853 149.52506962 567.35851482 143 575 C142.01773437 576.16660156 141.03546875 577.33320312 140.0234375 578.53515625 C134.8837767 584.59944586 129.68498723 590.43596994 124 596 C123.01 597.32 122.02 598.64 121 600 C120.34 600 119.68 600 119 600 C119 600.66 119 601.32 119 602 C116.35685796 604.35994825 113.68506429 606.68786131 111 609 C109.741875 610.27875 108.48375 611.5575 107.1875 612.875 C102.37289506 617.61774516 97.3093825 621.82834232 92 626 C90.92234375 626.84820313 89.8446875 627.69640625 88.734375 628.5703125 C80.38989028 635 80.38989028 635 77 635 C74 630 74 630 72.75 627 C70.62604971 622.14525649 67.99996342 617.65847397 65.328125 613.0859375 C64 610 64 610 65 605 C67.5546875 602.67578125 67.5546875 602.67578125 70.875 600.3125 C76.44718667 596.21440442 81.57199069 591.88845214 86.6328125 587.1796875 C88.46697639 585.49080392 90.37630734 583.88337329 92.3125 582.3125 C95.59156496 579.49097899 98.22150111 576.31055187 101 573 C102.66666667 571.33333333 104.33333333 569.66666667 106 568 C107.051875 566.741875 108.10375 565.48375 109.1875 564.1875 C112 561 112 561 114 561 C114.66 559.68 115.32 558.36 116 557 C117.652529 554.99154167 119.34551568 553.01614321 121.0625 551.0625 C126.5442075 544.66003694 131.32008278 537.9993138 136 531 C137.11568359 529.43185547 137.11568359 529.43185547 138.25390625 527.83203125 C162.00990971 493.82220093 177.99418843 453.34201836 187 413 C187.53560547 410.74736328 187.53560547 410.74736328 188.08203125 408.44921875 C196.35650487 371.16760163 196.06734362 331.69382871 191 294 C190.58234375 290.89271484 190.58234375 290.89271484 190.15625 287.72265625 C185.93169307 259.88064095 178.37445413 228.8184289 164.5703125 204.01953125 C163 201 163 201 161.1640625 196.3125 C151.01346592 171.39406797 134.7333299 146.9145554 117.24609375 126.61328125 C114.98523023 123.9828157 112.83114557 121.28896168 110.6875 118.5625 C107.86607488 115.07158418 105.17861843 112.12239797 102 109 C100.50210937 107.49050781 99.00421875 105.98101562 97.4609375 104.42578125 C95.76568889 102.72129063 94.07037465 101.01686527 92.375 99.3125 C91.08722656 98.0121582 91.08722656 98.0121582 89.7734375 96.68554688 C85.1730426 92.00539002 85.1730426 92.00539002 80 88 C80 87.34 80 86.68 80 86 C78.68 85.34 77.36 84.68 76 84 C73.67646573 82.07958493 71.38845825 80.11586973 69.125 78.125 C64.89379231 74.40555825 60.7365009 71.04362947 56 68 C54.58074219 67.02289063 53.16148437 66.04578125 51.69921875 65.0390625 C33.02626387 52.31874873 13.6378387 41.23509412 -7 32 C-9.7225 30.700625 -9.7225 30.700625 -12.5 29.375 C-19.87459213 26.19051704 -27.39973603 23.5902539 -35 21 C-36.48371094 20.48050781 -37.96742188 19.96101563 -39.49609375 19.42578125 C-49.55797616 15.96128228 -59.58902566 13.19275389 -70 11 C-71.49789062 10.67257813 -72.99578125 10.34515625 -74.5390625 10.0078125 C-134.20558632 -2.26807518 -198.38920564 0.1620531 -256 21 C-257.74410156 21.62132812 -259.48820312 22.24265625 -261.28515625 22.8828125 C-276.85775625 28.29293543 -276.85775625 28.29293543 -291.5 35.75 C-292.985 35.8325 -294.47 35.915 -296 36 C-299.82788583 31.0723565 -302.38202072 25.64074651 -305 20 C-305.53882813 18.93652344 -306.07765625 17.87304688 -306.6328125 16.77734375 C-307.88047639 14.24280367 -308.9508257 11.62293574 -310 9 C-239.40074328 -44.83596288 -75.44371676 -45.26623005 0 0 Z " transform="translate(517,29)" style="fill: #304257;"/><path d="M0 0 C1.8761499 0.22365234 3.7522998 0.44730469 5.68530273 0.67773438 C25.3904071 3.07170889 44.67243061 5.79663551 63.6875 11.6875 C66.03875 12.3990625 66.03875 12.3990625 68.4375 13.125 C69.84 13.640625 71.2425 14.15625 72.6875 14.6875 C73.80898438 15.09484375 74.93046875 15.5021875 76.0859375 15.921875 C83.69155117 18.88758599 89.17440218 21.53258882 93.6875 28.6875 C94.32715275 33.89610094 92.99022914 35.34915567 89.5 39.25 C69.675653 53.41024786 43.21913494 56.22043415 19.6875 59.6875 C18.681996 59.84378876 17.676492 60.00007751 16.64051819 60.16110229 C8.07987764 61.45245997 -0.43406847 62.26872937 -9.07421875 62.7890625 C-10.45244308 62.87274078 -11.83066742 62.95641907 -13.25065613 63.04263306 C-28.87230683 63.92292961 -44.4818407 64.08219689 -60.125 64.0625 C-61.61744232 64.06262085 -63.10988464 64.0627417 -64.64755249 64.06286621 C-89.3914823 64.03449412 -113.76016364 62.9986734 -138.3125 59.6875 C-139.55016113 59.5220166 -140.78782227 59.3565332 -142.06298828 59.18603516 C-198.16112748 51.37671565 -198.16112748 51.37671565 -212.3125 33.6875 C-213.45584706 28.54243825 -212.70954957 27.14937399 -209.25 23.125 C-193.05838375 11.85235578 -171.48922709 7.84849897 -152.3125 4.6875 C-150.99121094 4.44386719 -149.66992188 4.20023437 -148.30859375 3.94921875 C-99.72028928 -4.76717442 -48.94290716 -5.90105927 0 0 Z " transform="translate(431.3125,108.3125)" style="fill: #E6F6FC;"/><path d="M0 0 C5 2 5 2 8.625 4.3125 C26.18014767 15.09637642 47.85896972 19.75631348 68 23 C70.21074738 23.40015468 72.42036988 23.80656698 74.62890625 24.21875 C104.71537966 29.80123052 134.37419034 31.19981569 164.93408203 31.24023438 C169.33255168 31.24990666 173.7305461 31.28102342 178.12890625 31.3125 C212.86409555 31.44168312 248.19776205 28.27145322 282 20 C284.13082031 19.53980469 284.13082031 19.53980469 286.3046875 19.0703125 C302.28038925 15.57472496 317.37480944 10.19700363 331 1 C331.66 1 332.32 1 333 1 C333.66090696 10.64924169 332.75330733 15.44335748 325.625 22.0625 C274.46329828 60.32319624 175.7052092 56.7178857 116 50 C113.75293751 49.78810154 111.50551763 49.57996945 109.2578125 49.375 C20.97138756 41.05102509 20.97138756 41.05102509 0.9375 13.125 C-0.38763355 8.70788818 -0.18557331 4.5774751 0 0 Z " transform="translate(205,249)" style="fill: #A5BCCA;"/><path d="M0 0 C5.17563368 1.29390842 8.56230237 4.04153492 13 7 C19.55278002 10.56670305 25.8318613 12.97821729 33 15 C34.25296875 15.474375 35.5059375 15.94875 36.796875 16.4375 C53.89363705 22.79317362 72.05150828 25.275819 90 28 C91.47210938 28.226875 92.94421875 28.45375 94.4609375 28.6875 C118.12555373 31.97282633 142.14771381 32.41075892 166 32.375 C167.38098877 32.37445618 168.76197754 32.37391235 170.18481445 32.37335205 C205.88931193 32.30920916 241.08738094 29.86472724 276 22 C278.69349609 21.39865234 278.69349609 21.39865234 281.44140625 20.78515625 C297.88811731 16.7648491 313.64135612 11.02017372 328 2 C329.485 1.505 329.485 1.505 331 1 C331.46263402 11.4092654 330.72609762 15.13329492 323.6875 22.4375 C300.88970644 39.7638231 267.98204662 44.34668084 240.25 48.25 C239.17685547 48.40106201 238.10371094 48.55212402 236.99804688 48.70776367 C215.93840121 51.47441688 195.09821157 52.30121734 173.8894043 52.20581055 C169.67555709 52.18744796 165.46193018 52.18530255 161.24804688 52.18554688 C37.23825599 52.02835329 37.23825599 52.02835329 4.9375 17.75 C0.73149955 11.78019291 -0.14281093 7.28335744 0 0 Z " transform="translate(206,298)" style="fill: #A4BBC9;"/><path d="M0 0 C5 2 5 2 8.375 4.25 C26.28849944 14.90126994 48.59466535 19.7343914 69 23 C70.79566406 23.31582031 72.59132813 23.63164062 74.44140625 23.95703125 C146.01883293 36.15305737 225.75878524 36.03471012 296 16 C297.9490625 15.46826172 297.9490625 15.46826172 299.9375 14.92578125 C308.66989876 12.39842353 316.52928299 8.99817588 324.57421875 4.76953125 C328 3 328 3 333 1 C334.96865849 4.93731698 334.35460685 8.93617945 333 13 C310.80975665 46.28536502 232.38129079 48.02611699 197 50 C189.25264583 50.26122061 181.50468874 50.24903261 173.75390625 50.20581055 C170.36971476 50.18747136 166.98579882 50.1853027 163.6015625 50.18554688 C143.2066501 50.15483276 122.99563257 49.46223249 102.75 46.875 C101.04142822 46.65690674 99.33285645 46.43881348 97.57250977 46.21411133 C19.25952374 35.7798752 19.25952374 35.7798752 2 14 C-0.06868674 8.82828316 -0.16378395 5.48676247 0 0 Z " transform="translate(205,200)" style="fill: #E4F4FA;"/><path d="M0 0 C5 2 5 2 10.3125 5.25 C46.30357876 26.40573166 97.90353267 29.97646873 138.734375 30.2734375 C140.31095383 30.28596558 141.88753265 30.29849365 143.5118866 30.31140137 C176.32136892 30.52179801 208.58516181 30.71361022 241 25 C243.08320557 24.65509521 243.08320557 24.65509521 245.20849609 24.30322266 C268.37814896 20.4191653 290.26169085 14.32630731 311 3 C312.32 2.34 313.64 1.68 315 1 C315.57547821 8.36612103 314.65792828 12.22416894 310 18 C246.2368952 68.47912464 119.45847253 56.943231 46.9296875 36.75390625 C16.85968195 27.85968195 16.85968195 27.85968195 7 18 C7 17.34 7 16.68 7 16 C5.68 15.34 4.36 14.68 3 14 C0.35677292 9.18555067 -0.33411107 5.4571474 0 0 Z " transform="translate(214,348)" style="fill: #A3BAC8;"/><path d="M0 0 C0.99 0.33 1.98 0.66 3 1 C3 1.66 3 2.32 3 3 C5.475 3.99 5.475 3.99 8 5 C10.29480254 6.09763447 12.58614041 7.20252616 14.875 8.3125 C22.42866643 11.84779156 30.03526174 14.55553765 38 17 C39.2684375 17.40992188 40.536875 17.81984375 41.84375 18.2421875 C81.93512398 30.75131775 124.30186739 32.70553193 166 32 C167.68867188 31.98195313 169.37734375 31.96390625 171.1171875 31.9453125 C200.78727792 31.07115039 231.86492341 26.48988529 260 17 C261.07894531 16.6596875 262.15789062 16.319375 263.26953125 15.96875 C274.17723938 12.49620621 284.01628315 7.49104427 294 2 C295.485 1.505 295.485 1.505 297 1 C296.63888638 11.11118122 290.85956713 17.19601196 283 23 C259.79005359 36.9710357 234.44950236 42.1897004 208 46 C206.83984375 46.16951172 205.6796875 46.33902344 204.484375 46.51367188 C165.77593496 51.8873666 124.55721829 50.96413136 86 45 C82.88111328 44.53207031 82.88111328 44.53207031 79.69921875 44.0546875 C54.25345721 39.8107553 15.94368149 33.0056665 1.5 8.8125 C0 5 0 5 0 0 Z " transform="translate(223,393)" style="fill: #A1B9C7;"/><path d="M0 0 C0.66 0 1.32 0 2 0 C2.86625 1.52625 3.7325 3.0525 4.625 4.625 C18.52807682 26.76693716 56.05032785 31.54937165 80 35 C81.24475098 35.18256348 82.48950195 35.36512695 83.77197266 35.55322266 C155.04115507 45.77783207 239.64393589 48.26202369 308 23 C309.67835938 22.40058594 309.67835938 22.40058594 311.390625 21.7890625 C322.58601469 17.51184952 332.53885587 10.92228825 338 0 C340 1 340 1 340.875 5.6875 C341.0107742 11.45790337 340.6626416 12.77387508 337 17 C335.7625 18.7015625 335.7625 18.7015625 334.5 20.4375 C323.00958017 32.13310589 305.48649014 37.25201565 290 41.1875 C288.74960937 41.51685547 287.49921875 41.84621094 286.2109375 42.18554688 C249.51089094 51.74047618 212.12813299 54.54967591 174.30078125 54.39111328 C169.73667782 54.37495283 165.173453 54.39113113 160.609375 54.41015625 C135.75290525 54.42825145 111.17471296 52.68034199 86.625 48.6875 C85.31901855 48.47947754 84.01303711 48.27145508 82.66748047 48.05712891 C16.3165988 37.09691632 16.3165988 37.09691632 0.5625 15.6875 C-1.69298621 10.36455254 -1.83052907 5.49158722 0 0 Z " transform="translate(202,147)" style="fill: #E3F3F9;"/><path d="M0 0 C1.19625 0.4125 2.3925 0.825 3.625 1.25 C47.78284045 15.62697131 104.86070276 18.84985621 149 2 C150.98 1.67 152.96 1.34 155 1 C155.25 4.9375 155.25 4.9375 155 9 C153.68 9.33 152.36 9.66 151 10 C150.67 10.99 150.34 11.98 150 13 C149.34 13 148.68 13 148 13 C147.67 13.66 147.34 14.32 147 15 C146.01 14.505 146.01 14.505 145 14 C143.64644661 16.11785113 143.64644661 16.11785113 145 19 C146.65 19 148.3 19 150 19 C143.61574524 31.76850953 126.93903551 35.52632437 114.0546875 37.91796875 C79.24659059 43.07382733 32.30901502 45.89647976 5 20 C5 17 5 17 7 15 C5.02 14.34 3.04 13.68 1 13 C0.21593672 8.5756429 0 4.48043313 0 0 Z " transform="translate(294,529)" style="fill: #2F4359;"/><path d="M0 0 C1.093125 0.50789063 2.18625 1.01578125 3.3125 1.5390625 C16.25361776 7.2978599 29.19465541 10.9235462 43 14 C44.31355469 14.30679687 45.62710938 14.61359375 46.98046875 14.9296875 C101.24691169 26.82538234 179.21325541 28.16605726 230.16015625 3.3671875 C232.72276299 2.13347036 235.35930206 1.05627918 238 0 C236.19462879 10.83222725 230.03587924 15.72091525 220.6875 21 C208.30321624 26.83417058 195.61194946 30.31293203 182.1875 32.75 C181.09888672 32.94859619 180.01027344 33.14719238 178.88867188 33.35180664 C160.38367141 36.50484051 141.93339143 37.33751374 123.1875 37.25 C121.06779785 37.24250732 118.9480957 37.23501465 116.76416016 37.22729492 C23.8694516 36.5868145 23.8694516 36.5868145 1 8 C0.25 3.6875 0.25 3.6875 0 0 Z " transform="translate(253,446)" style="fill: #A0B9C8;"/><path d="M0 0 C1.60875 0.763125 3.2175 1.52625 4.875 2.3125 C10.14362307 4.71039896 15.42297215 6.42699214 21 8 C22.32 8.495 23.64 8.99 25 9.5 C32.5461125 11.76383375 40.21695163 12.84120385 48 14 C50.72056641 14.40605469 50.72056641 14.40605469 53.49609375 14.8203125 C100.73333807 21.57317324 149.9632379 19.62070982 195 3 C196.98 2.34 198.96 1.68 201 1 C196.12638168 15.62085495 183.96713832 19.77229222 170.35546875 24.359375 C148.10610685 31.17537208 125.51663978 32.37621292 102.375 32.3125 C100.26174316 32.30758545 98.14848633 32.3026709 95.97119141 32.29760742 C66.71697919 32.07815019 29.86324401 31.1768479 6 12 C0 2.94545455 0 2.94545455 0 0 Z " transform="translate(271,488)" style="fill: #A1BAC8;"/><path d="M0 0 C1.19625 0.4125 2.3925 0.825 3.625 1.25 C47.78284045 15.62697131 104.86070276 18.84985621 149 2 C150.98 1.67 152.96 1.34 155 1 C153.29247774 7.83008904 148.83701186 9.59626487 142.6875 12.5625 C105.36960934 27.30422575 45.46991379 28.8609065 9 11 C5.48810464 8.55318766 2.95441674 6.15816962 0 3 C0 2.01 0 1.02 0 0 Z " transform="translate(294,529)" style="fill: #9CB3C2;"/><path d="M0 0 C3.18723886 4.24965181 3.29150594 5.53004086 3.8125 10.5625 C4.37091325 14.06391655 4.37091325 14.06391655 6 17 C9.57310974 18.61035283 12.66620528 19.10327826 16.5546875 19.5078125 C20 20 20 20 25 23 C24 28 24 28 20.5625 29.6875 C16 31 16 31 10.75 31.1875 C5.70972136 32.44525339 5.70972136 32.44525339 4.546875 36.61328125 C3.85432868 39.51525707 3.24321583 42.43799138 2.71875 45.375 C2 49 2 49 0 51 C-1.98 51 -3.96 51 -6 51 C-9.05758593 46.41362111 -9.98740108 43.13543839 -10.5 37.625 C-10.995 36.09875 -11.49 34.5725 -12 33 C-17.78079881 31.39738417 -17.78079881 31.39738417 -24 31 C-27.6875 29.6875 -27.6875 29.6875 -30 28 C-30.33 26.35 -30.66 24.7 -31 23 C-25.37665519 19.62599311 -21.7832964 17.79156276 -15.1875 18.5625 C-13.805625 18.376875 -12.42375 18.19125 -11 18 C-10.05757889 12.81405544 -10.05757889 12.81405544 -10 7 C-6.00677966 -1.50169492 -6.00677966 -1.50169492 0 0 Z " transform="translate(375,113)" style="fill: #314357;"/><path d="M0 0 C0.495 1.485 0.495 1.485 1 3 C-12.68703678 21.85769512 -39.34633014 22.26420768 -60.5625 22.375 C-62.01769043 22.38877686 -63.47288086 22.40255371 -64.97216797 22.41674805 C-82.22193526 22.34404194 -108.27001489 20.57361787 -120 6 C-120.33 4.35 -120.66 2.7 -121 1 C-117.72032311 2.09322563 -114.44831801 3.21861257 -111.234375 4.4921875 C-106.60175499 6.14181049 -102.0731234 7.17089304 -97.25 8.125 C-95.60515625 8.45757813 -93.9603125 8.79015625 -92.265625 9.1328125 C-65.8174345 13.4885234 -23.33824835 15.55883223 0 0 Z " transform="translate(432,578)" style="fill: #A7C1CF;"/><path d="M0 0 C1.45019531 0.59748047 1.45019531 0.59748047 2.9296875 1.20703125 C4.23164063 1.73683594 5.53359375 2.26664063 6.875 2.8125 C8.15117187 3.33457031 9.42734375 3.85664062 10.7421875 4.39453125 C48.90416614 18.78404797 104.01587905 18.83162974 141 1 C141.99 1 142.98 1 144 1 C137.61574524 13.76850953 120.93903551 17.52632437 108.0546875 19.91796875 C74.23739046 24.92706769 26.74781796 28.14294888 0 3 C0 2.01 0 1.02 0 0 Z " transform="translate(300,547)" style="fill: #9DB8C9;"/><path d="M0 0 C-3.86074769 7.72149538 -10.18776609 9.53744801 -18 12 C-35.46822751 14.45196221 -56.6657338 15.86284099 -71 4 C-71.33 3.01 -71.66 2.02 -72 1 C-66.61525776 1.50936751 -61.33854571 2.11024238 -56 3 C-53.63671663 3.09003308 -51.27124672 3.13062616 -48.90625 3.1328125 C-46.864375 3.13474609 -46.864375 3.13474609 -44.78125 3.13671875 C-43.3684375 3.13285156 -41.955625 3.12898437 -40.5 3.125 C-38.4271875 3.13080078 -38.4271875 3.13080078 -36.3125 3.13671875 C-24.09889802 3.1252398 -11.81259414 0 0 0 Z " transform="translate(408,615)" style="fill: #96B0BD;"/><path d="M0 0 C3.27967689 1.09322563 6.55168199 2.21861257 9.765625 3.4921875 C14.39824501 5.14181049 18.9268766 6.17089304 23.75 7.125 C25.39484375 7.45757813 27.0396875 7.79015625 28.734375 8.1328125 C53.28248341 12.17560187 77.66865886 10.24860024 102 6 C104.33172402 5.65558939 106.66426815 5.31608907 109 5 C102.3023232 9.46511787 97.04965172 11.775053 89 13 C87.18242187 13.2784375 87.18242187 13.2784375 85.328125 13.5625 C74.44542587 14.97685801 63.64402789 15.18158395 52.6875 15.1875 C51.25857422 15.18830566 49.82964844 15.18911133 48.35742188 15.18994141 C41.65106987 15.15502865 35.01742082 14.97054269 28.33203125 14.42578125 C22.03182075 13.75809525 22.03182075 13.75809525 16 15 C10.11064251 12.52792402 4.96451223 10.11549965 1 5 C0.67 3.35 0.34 1.7 0 0 Z " transform="translate(311,579)" style="fill: #89A3B5;"/><path d="M0 0 C-0.3619822 10.13550152 -6.15525314 16.14756981 -14 22 C-25.86765747 29.28308563 -25.86765747 29.28308563 -31 28 C-30.67 27.34 -30.34 26.68 -30 26 C-28.68 26 -27.36 26 -26 26 C-25.67 25.01 -25.34 24.02 -25 23 C-23.35 22.01 -21.7 21.02 -20 20 C-17.65451259 15.73547743 -15.54041141 11.62123422 -14 7 C-10.36858019 4.93669329 -6.70145766 2.93485287 -3 1 C-2 0 -2 0 0 0 Z " transform="translate(520,394)" style="fill: #D0E2EC;"/><path d="M0 0 C0.68805663 7.33927074 -0.37220964 11.26153996 -5 17 C-18.58024691 27.35493827 -18.58024691 27.35493827 -24 26 C-23.23945313 25.31679688 -22.47890625 24.63359375 -21.6953125 23.9296875 C-18.78944212 20.77113274 -17.52168228 18.06496755 -15.875 14.125 C-13.12964023 8.34273782 -7.47953963 0 0 0 Z " transform="translate(529,349)" style="fill: #D4E4EE;"/><path d="M0 0 C0.495 1.485 0.495 1.485 1 3 C-8.2211974 15.70476086 -22.09323047 19.14328911 -37 20 C-36.34 18.35 -35.68 16.7 -35 15 C-32.01038995 14.28818808 -29.00765447 13.63123612 -26 13 C-23.33472577 11.58708354 -20.67111792 10.16837942 -18.05859375 8.66015625 C-13.44440146 6.15564575 -8.62153966 4.20261021 -3.7734375 2.19921875 C-1.13975528 1.26255334 -1.13975528 1.26255334 0 0 Z " transform="translate(432,578)" style="fill: #D1E2EA;"/><path d="M0 0 C-7.39902244 14.79804487 -30.43812986 18.86374895 -45 23 C-46.10546875 19.66796875 -46.10546875 19.66796875 -46 16 C-41.92578125 14.36328125 -41.92578125 14.36328125 -36.3125 13.3125 C-34.3840625 12.91546875 -32.455625 12.5184375 -30.46875 12.109375 C-27.76171875 11.56023437 -27.76171875 11.56023437 -25 11 C-17.55607013 9.02954798 -6.65165681 0 0 0 Z " transform="translate(537,165)" style="fill: #A3C1D1;"/><path d="M0 0 C5.38474224 0.50936751 10.66145429 1.11024238 16 2 C21.68370296 2.25481109 27.36402688 2.44229939 33.05078125 2.60546875 C36.03516416 2.70282207 39.0179594 2.84685669 42 3 C42 3.33 42 3.66 42 4 C40.02 4.33 38.04 4.66 36 5 C36 5.66 36 6.32 36 7 C31.26123144 10.15917904 26.55127043 9.17530328 21 9 C20.34 8.67 19.68 8.34 19 8 C14.34724024 7.6947378 14.34724024 7.6947378 10 9 C1.24 3.72 1.24 3.72 0 0 Z " transform="translate(336,616)" style="fill: #849EB1;"/><path d="M0 0 C-1.23324467 4.93297869 -2.99153955 6.03373926 -7 9 C-13.16218107 11.05406036 -16.41751617 10.3494903 -22 7 C-22 6.34 -22 5.68 -22 5 C-22.66 5 -23.32 5 -24 5 C-24.33 3.68 -24.66 2.36 -25 1 C-21.39587172 0.83250524 -17.79169613 0.66602823 -14.1875 0.5 C-11.17689453 0.36078125 -11.17689453 0.36078125 -8.10546875 0.21875 C-5.40513957 0.10305112 -2.70280667 0 0 0 Z " transform="translate(385,646)" style="fill: #99B3C4;"/><path d="M0 0 C1.42032105 5.68128422 -0.62730548 7.36254504 -4 12 C-11.50830417 19.66153487 -21.73104512 24.22901217 -32 27 C-32.99 26.67 -33.98 26.34 -35 26 C-33.69804687 25.43152344 -32.39609375 24.86304688 -31.0546875 24.27734375 C-29.34539062 23.50519531 -27.63609375 22.73304688 -25.875 21.9375 C-24.18117188 21.18339844 -22.48734375 20.42929687 -20.7421875 19.65234375 C-13.47288387 15.58656355 -10.62292072 11.86876216 -8 4 C-3.875 1.625 -3.875 1.625 0 0 Z " transform="translate(490,446)" style="fill: #D1E4EF;"/><path d="M0 0 C-3.84761726 7.69523452 -10.10789785 9.7902114 -18 12 C-23.68336672 12.44933655 -29.33535253 12.73713466 -35 12 C-35 11.01 -35 10.02 -35 9 C-31.61135656 7.30567828 -27.86381508 7.38285466 -24.125 7 C-19.62567717 6.53779027 -15.38812405 6.09703101 -11 5 C-10.67 4.01 -10.34 3.02 -10 2 C-6.54310037 0.78368346 -3.67168136 0 0 0 Z " transform="translate(408,615)" style="fill: #CFE1EA;"/><path d="M0 0 C-1.72359813 6.89439251 -6.74271067 9.04811607 -12.9375 11.6875 C-20.01112389 14.38568643 -25.41709879 16.30950617 -33 16 C-32 14 -32 14 -26 13 C-24.68 13 -23.36 13 -22 13 C-21.67 12.01 -21.34 11.02 -21 10 C-19 9 -17 8 -15 7 C-14.67 6.01 -14.34 5.02 -14 4 C-4.61538462 0 -4.61538462 0 0 0 Z " transform="translate(449,530)" style="fill: #D4E6ED;"/><path d="M0 0 C4.78729204 1.91491682 8.64350234 4.27718897 13 7 C15.475 7.99 15.475 7.99 18 9 C17.34 9.66 16.68 10.32 16 11 C15.01 10.67 14.02 10.34 13 10 C12.34 10.66 11.68 11.32 11 12 C10.01 12.33 9.02 12.66 8 13 C8 14.32 8 15.64 8 17 C7.01 17.33 6.02 17.66 5 18 C-0.29536821 11.38078974 -0.10821294 8.33239634 0 0 Z " transform="translate(205,249)" style="fill: #7F98AE;"/><path d="M0 0 C5 2 5 2 9 5 C9.390625 8.57421875 9.390625 8.57421875 9.25 12.6875 C9.21390625 14.05261719 9.1778125 15.41773438 9.140625 16.82421875 C9.07101563 18.39623047 9.07101563 18.39623047 9 20 C1.28398642 13.85576696 -0.29285394 9.81060697 0 0 Z " transform="translate(205,200)" style="fill: #84A1B3;"/><path d="M0 0 C5.40001435 2.16000574 10.04978801 4.96386998 15 8 C12 10 12 10 8 9 C7.34 10.65 6.68 12.3 6 14 C5.01 14 4.02 14 3 14 C0.35652981 9.20259113 -0.3328174 5.43601747 0 0 Z " transform="translate(214,348)" style="fill: #7A95AA;"/><path d="" transform="translate(0,0)" style="fill: #BFDFDF;"/><path d="" transform="translate(0,0)" style="fill: #AAFFFF;"/><path d="" transform="translate(0,0)" style="fill: #CCCCCC;"/><path d="" transform="translate(0,0)" style="fill: #CCCCFF;"/><path d="" transform="translate(0,0)" style="fill: #AAFFFF;"/><path d="" transform="translate(0,0)" style="fill: #CCCCFF;"/></svg>